<?xml version="1.0" encoding="utf-8"?>
<!-- Generator: Adobe Illustrator 24.2.3, SVG Export Plug-In . SVG Version: 6.00 Build 0)  -->
<svg version="1.1" xmlns="http://www.w3.org/2000/svg" xmlns:xlink="http://www.w3.org/1999/xlink" x="0px" y="0px"
	 viewBox="0 0 320 320" style="enable-background:new 0 0 320 320;" xml:space="preserve">
<style type="text/css">
	.st0{fill:url(#SVGID_1_);}
	.st1{fill:url(#SVGID_2_);}
	.st2{fill:url(#SVGID_3_);}
	.st3{fill:url(#SVGID_4_);}
	.st4{fill:url(#SVGID_5_);}
	.st5{fill:#006BD8;}
	.st6{font-family:'Arial-Black';}
	.st7{font-size:85.4657px;}
</style>
<g id="Capa_1">
	<g>
		<g>
			<linearGradient id="SVGID_1_" gradientUnits="userSpaceOnUse" x1="32.188" y1="151.072" x2="316.7236" y2="151.072">
				<stop  offset="0.2289" style="stop-color:#FFFFFF"/>
				<stop  offset="1" style="stop-color:#000000"/>
			</linearGradient>
			<path class="st0" d="M37.05,113.45h15.99v21.2c1.58-1.78,3.38-3.12,5.39-4.01c2.01-0.89,4.23-1.34,6.67-1.34
				c5.03,0,9.19,1.94,12.49,5.82c3.29,3.88,4.94,9.45,4.94,16.71c0,4.84-0.75,9.1-2.26,12.79c-1.5,3.69-3.59,6.44-6.24,8.26
				c-2.66,1.82-5.61,2.73-8.85,2.73c-2.77,0-5.32-0.64-7.62-1.92c-1.74-1-3.63-2.88-5.68-5.63v6.55H37.05V113.45z M52.92,152.35
				c0,3.81,0.67,6.57,2,8.28c1.33,1.71,3.03,2.57,5.08,2.57c1.89,0,3.48-0.84,4.76-2.52c1.28-1.68,1.93-4.51,1.93-8.49
				c0-3.51-0.63-6.08-1.89-7.72c-1.26-1.64-2.78-2.46-4.57-2.46c-2.15,0-3.91,0.86-5.27,2.57C53.6,146.28,52.92,148.87,52.92,152.35
				z"/>
			<linearGradient id="SVGID_2_" gradientUnits="userSpaceOnUse" x1="32.188" y1="151.072" x2="316.7236" y2="151.072">
				<stop  offset="0.2289" style="stop-color:#FFFFFF"/>
				<stop  offset="1" style="stop-color:#000000"/>
			</linearGradient>
			<path class="st1" d="M90.65,113.45h15.87v61.18H90.65V113.45z"/>
			<linearGradient id="SVGID_3_" gradientUnits="userSpaceOnUse" x1="32.188" y1="151.072" x2="316.7236" y2="151.072">
				<stop  offset="0.2289" style="stop-color:#FFFFFF"/>
				<stop  offset="1" style="stop-color:#000000"/>
			</linearGradient>
			<path class="st2" d="M131.06,144.67l-15.13-1.71c0.57-2.84,1.39-5.07,2.47-6.7c1.08-1.63,2.63-3.04,4.65-4.24
				c1.45-0.86,3.45-1.53,5.99-2c2.54-0.47,5.29-0.71,8.25-0.71c4.75,0,8.56,0.29,11.44,0.86c2.88,0.57,5.28,1.76,7.2,3.57
				c1.35,1.25,2.41,3.03,3.19,5.32c0.78,2.3,1.17,4.49,1.17,6.57v19.57c0,2.09,0.12,3.72,0.37,4.9c0.25,1.18,0.78,2.69,1.61,4.53
				H147.4c-0.6-1.14-0.99-2.01-1.17-2.61c-0.18-0.6-0.36-1.54-0.54-2.82c-2.07,2.14-4.14,3.67-6.18,4.59
				c-2.8,1.22-6.06,1.84-9.76,1.84c-4.93,0-8.67-1.22-11.22-3.67c-2.55-2.45-3.83-5.47-3.83-9.06c0-3.37,0.92-6.13,2.76-8.3
				c1.84-2.17,5.24-3.78,10.19-4.84c5.94-1.28,9.79-2.18,11.55-2.69c1.76-0.51,3.63-1.19,5.6-2.02c0-2.09-0.4-3.55-1.21-4.38
				s-2.22-1.25-4.24-1.25c-2.59,0-4.54,0.45-5.83,1.34C132.5,141.44,131.69,142.75,131.06,144.67z M144.79,153.6
				c-2.18,0.83-4.45,1.57-6.81,2.21c-3.22,0.92-5.25,1.82-6.11,2.71c-0.88,0.92-1.32,1.96-1.32,3.13c0,1.34,0.43,2.43,1.3,3.28
				c0.87,0.85,2.15,1.27,3.83,1.27c1.76,0,3.4-0.46,4.92-1.38s2.59-2.04,3.23-3.36c0.64-1.32,0.95-3.04,0.95-5.15V153.6z"/>
			<linearGradient id="SVGID_4_" gradientUnits="userSpaceOnUse" x1="32.188" y1="151.072" x2="316.7236" y2="151.072">
				<stop  offset="0.2289" style="stop-color:#FFFFFF"/>
				<stop  offset="1" style="stop-color:#000000"/>
			</linearGradient>
			<path class="st3" d="M169.88,130.31h14.78v6.47c2.13-2.7,4.28-4.62,6.45-5.76c2.17-1.14,4.79-1.71,7.85-1.71
				c3.3,0,5.91,0.63,7.83,1.88s3.49,3.12,4.71,5.59c2.49-2.89,4.75-4.86,6.8-5.91c2.04-1.04,4.57-1.56,7.57-1.56
				c4.43,0,7.88,1.41,10.37,4.24c2.49,2.82,3.73,7.24,3.73,13.25v27.83h-15.87v-25.25c0-2-0.36-3.49-1.09-4.47
				c-1.06-1.53-2.38-2.29-3.95-2.29c-1.86,0-3.36,0.72-4.5,2.17c-1.14,1.45-1.71,3.77-1.71,6.97v22.87h-15.87v-24.41
				c0-1.95-0.11-3.27-0.31-3.96c-0.34-1.11-0.92-2.01-1.76-2.69c-0.83-0.68-1.81-1.02-2.93-1.02c-1.82,0-3.32,0.74-4.49,2.21
				c-1.17,1.47-1.76,3.9-1.76,7.26v22.62h-15.87V130.31z"/>
			<linearGradient id="SVGID_5_" gradientUnits="userSpaceOnUse" x1="32.188" y1="151.072" x2="316.7236" y2="151.072">
				<stop  offset="0.2289" style="stop-color:#FFFFFF"/>
				<stop  offset="1" style="stop-color:#000000"/>
			</linearGradient>
			<path class="st4" d="M268.53,113.45v16.86h8.71v12.44h-8.71v15.7c0,1.89,0.17,3.14,0.51,3.75c0.52,0.94,1.43,1.42,2.72,1.42
				c1.17,0,2.8-0.36,4.9-1.08l1.17,11.72c-3.92,0.92-7.57,1.38-10.97,1.38c-3.94,0-6.85-0.54-8.71-1.63s-3.25-2.73-4.14-4.94
				s-1.34-5.79-1.34-10.73v-15.59h-5.83v-12.44h5.83v-8.14L268.53,113.45z"/>
		</g>
		<text transform="matrix(0.9321 0 0 1 32.188 174.6328)" class="st5 st6 st7">blamt</text>
	</g>
</g>
<g id="Capa_2">
	<path class="st5" d="M293.41,124.53c0.37-3.97,0.75-8.01-0.03-11.93c-0.77-3.92-2.87-7.76-6.35-9.71c-1.37-0.77-2.9-1.21-4.44-1.55
		c-4.64-1.04-9.48-1.2-14.19-0.47"/>
</g>
</svg>
